<?xml version="1.0" encoding="UTF-8"?>
<svg xmlns="http://www.w3.org/2000/svg" xmlns:xlink="http://www.w3.org/1999/xlink" width="518px" height="376px" viewBox="0 0 517 376" version="1.1">
<defs>
<filter id="alpha" filterUnits="objectBoundingBox" x="0%" y="0%" width="100%" height="100%">
  <feColorMatrix type="matrix" in="SourceGraphic" values="0 0 0 0 1 0 0 0 0 1 0 0 0 0 1 0 0 0 1 0"/>
</filter>
<mask id="mask0">
  <g filter="url(#alpha)">
<rect x="0" y="0" width="517" height="376" style="fill:rgb(0%,0%,0%);fill-opacity:0.2;stroke:none;"/>
  </g>
</mask>
<clipPath id="clip1">
  <rect x="0" y="0" width="517" height="376"/>
</clipPath>
<g id="surface5" clip-path="url(#clip1)">
<path style=" stroke:none;fill-rule:nonzero;fill:rgb(0%,0%,0%);fill-opacity:1;" d="M 357.363281 303.320312 C 357.355469 304.472656 357.34375 306.082031 357.289062 308.074219 C 357.285156 308.351562 357.269531 308.632812 357.261719 308.921875 C 357.199219 311.714844 357.097656 315.167969 356.960938 319.066406 C 356.953125 319.300781 356.949219 319.53125 356.933594 319.769531 C 356.75 324.527344 356.460938 330.070312 355.960938 338.84375 C 355.035156 355.054688 353.421875 341.074219 351.796875 346.757812 C 347.292969 343.984375 342.351562 341.078125 337.070312 338.09375 C 336.117188 337.554688 335.15625 337.015625 334.1875 336.472656 C 323.621094 330.574219 311.824219 324.394531 299.507812 318.277344 C 299.019531 318.035156 298.527344 317.789062 298.042969 317.554688 C 269.828125 303.597656 239.03125 290.023438 214.082031 280.964844 C 209.265625 279.21875 204.667969 277.640625 200.34375 276.253906 C 191.238281 273.339844 183.367188 271.304688 177.3125 270.421875 C 171.003906 269.5 166.648438 269.832031 164.890625 271.730469 C 164.824219 270.390625 164.757812 269.105469 164.6875 267.878906 C 164.660156 267.46875 164.632812 267.070312 164.605469 266.675781 C 164.648438 266.566406 164.699219 266.464844 164.75 266.359375 C 164.757812 266.34375 164.765625 266.328125 164.769531 266.3125 C 164.785156 266.28125 164.800781 266.246094 164.816406 266.214844 C 164.835938 266.175781 164.859375 266.132812 164.882812 266.097656 C 164.90625 266.050781 164.929688 266.007812 164.960938 265.964844 C 165.019531 265.875 165.085938 265.773438 165.160156 265.683594 C 165.210938 265.613281 165.269531 265.546875 165.328125 265.484375 C 165.351562 265.453125 165.375 265.425781 165.402344 265.398438 C 165.429688 265.375 165.453125 265.339844 165.488281 265.308594 C 165.5 265.289062 165.519531 265.269531 165.539062 265.253906 C 165.59375 265.195312 165.648438 265.140625 165.710938 265.089844 C 165.945312 264.875 166.195312 264.675781 166.460938 264.5 C 166.550781 264.441406 166.648438 264.382812 166.742188 264.316406 C 167.402344 263.917969 168.101562 263.585938 168.824219 263.316406 C 169.074219 263.222656 169.324219 263.140625 169.59375 263.046875 C 169.691406 263.019531 169.785156 262.988281 169.882812 262.953125 C 170.027344 262.910156 170.171875 262.863281 170.324219 262.828125 C 171.070312 262.605469 171.878906 262.414062 172.753906 262.238281 C 173.015625 262.183594 173.292969 262.132812 173.566406 262.085938 C 173.789062 262.046875 174.019531 262.007812 174.25 261.96875 C 176.203125 261.660156 178.414062 261.429688 180.859375 261.277344 C 181.089844 261.265625 181.320312 261.253906 181.550781 261.238281 C 181.820312 261.226562 182.089844 261.210938 182.363281 261.199219 C 182.59375 261.1875 182.832031 261.179688 183.066406 261.171875 C 183.296875 261.160156 183.53125 261.152344 183.777344 261.148438 C 184.441406 261.128906 185.121094 261.109375 185.820312 261.09375 C 187.804688 261.0625 189.890625 261.074219 192.085938 261.121094 C 193.105469 261.140625 194.140625 261.171875 195.207031 261.21875 C 195.273438 261.21875 195.34375 261.226562 195.410156 261.226562 C 196.335938 261.253906 197.277344 261.296875 198.230469 261.34375 C 198.898438 261.378906 199.574219 261.410156 200.25 261.449219 C 200.890625 261.488281 201.53125 261.527344 202.183594 261.574219 C 202.6875 261.601562 203.195312 261.640625 203.707031 261.671875 C 204.140625 261.707031 204.574219 261.738281 205.007812 261.765625 C 205.527344 261.804688 206.046875 261.84375 206.570312 261.882812 C 207.292969 261.941406 208.015625 262 208.753906 262.0625 C 209.480469 262.125 210.222656 262.191406 210.964844 262.257812 C 211.707031 262.324219 212.457031 262.394531 213.207031 262.46875 C 213.285156 262.476562 213.359375 262.480469 213.429688 262.488281 C 214.113281 262.558594 214.796875 262.625 215.484375 262.699219 C 219.308594 263.085938 223.246094 263.539062 227.289062 264.058594 C 229.707031 264.367188 232.15625 264.699219 234.636719 265.050781 C 238.398438 265.585938 242.222656 266.164062 246.074219 266.78125 C 249.929688 267.40625 253.808594 268.0625 257.707031 268.757812 C 258.691406 268.9375 259.675781 269.113281 260.667969 269.296875 C 261.878906 269.519531 263.085938 269.75 264.296875 269.980469 C 265.058594 270.125 265.820312 270.269531 266.582031 270.421875 C 267.488281 270.597656 268.402344 270.777344 269.308594 270.953125 C 275.28125 272.136719 281.21875 273.398438 287.011719 274.722656 C 287.964844 274.9375 288.917969 275.160156 289.863281 275.378906 C 291.753906 275.820312 293.628906 276.265625 295.484375 276.71875 C 296 276.84375 296.503906 276.96875 297.011719 277.09375 C 298.277344 277.410156 299.53125 277.726562 300.773438 278.039062 L 300.773438 278.046875 C 300.847656 278.058594 300.917969 278.082031 300.992188 278.101562 C 301.898438 278.328125 302.796875 278.558594 303.691406 278.796875 C 305.800781 279.347656 307.875 279.90625 309.914062 280.464844 C 311.265625 280.847656 312.605469 281.222656 313.925781 281.601562 C 315.902344 282.183594 317.839844 282.761719 319.726562 283.339844 C 320.191406 283.484375 320.660156 283.628906 321.121094 283.765625 C 322.5 284.199219 323.851562 284.632812 325.179688 285.0625 C 326.230469 285.402344 327.253906 285.75 328.265625 286.101562 C 329.277344 286.449219 330.269531 286.796875 331.242188 287.144531 C 331.875 287.367188 332.492188 287.597656 333.101562 287.820312 C 333.996094 288.152344 334.863281 288.480469 335.714844 288.816406 C 335.980469 288.914062 336.234375 289.019531 336.492188 289.117188 C 336.972656 289.300781 337.4375 289.492188 337.898438 289.683594 C 338.207031 289.800781 338.507812 289.925781 338.808594 290.058594 C 339.105469 290.175781 339.410156 290.300781 339.699219 290.425781 C 339.992188 290.542969 340.28125 290.667969 340.570312 290.800781 C 340.8125 290.898438 341.050781 291.003906 341.28125 291.109375 C 341.746094 291.3125 342.214844 291.515625 342.667969 291.726562 C 342.890625 291.832031 343.113281 291.929688 343.335938 292.035156 L 343.847656 292.273438 C 343.921875 292.3125 343.992188 292.34375 344.066406 292.378906 C 344.625 292.640625 345.164062 292.902344 345.6875 293.167969 C 346.179688 293.414062 346.660156 293.664062 347.121094 293.910156 C 347.664062 294.199219 348.183594 294.480469 348.683594 294.769531 C 348.78125 294.824219 348.882812 294.882812 348.980469 294.933594 C 349.316406 295.125 349.636719 295.320312 349.957031 295.511719 C 350.589844 295.902344 351.1875 296.28125 351.746094 296.664062 C 352.296875 297.042969 352.808594 297.417969 353.289062 297.792969 C 353.289062 297.800781 353.289062 297.800781 353.296875 297.800781 C 353.527344 297.984375 353.75 298.167969 353.960938 298.347656 C 354.300781 298.640625 354.617188 298.925781 354.90625 299.214844 C 355.003906 299.304688 355.09375 299.398438 355.179688 299.496094 C 355.21875 299.527344 355.253906 299.5625 355.285156 299.601562 C 355.425781 299.753906 355.5625 299.902344 355.695312 300.054688 C 355.851562 300.238281 355.996094 300.421875 356.132812 300.605469 C 356.199219 300.699219 356.273438 300.792969 356.332031 300.882812 C 356.410156 300.996094 356.488281 301.113281 356.554688 301.226562 C 356.613281 301.316406 356.664062 301.414062 356.71875 301.507812 C 356.859375 301.746094 356.976562 301.992188 357.074219 302.25 C 357.144531 302.425781 357.203125 302.605469 357.25 302.789062 C 357.300781 302.964844 357.335938 303.140625 357.363281 303.320312 Z M 357.363281 303.320312 "/>
</g>
</defs>
<g id="surface1">
<path style=" stroke:none;fill-rule:nonzero;fill:rgb(94.901961%,94.901961%,94.901961%);fill-opacity:1;" d="M 318.625 48.761719 C 318.625 58.457031 310.769531 66.3125 301.082031 66.3125 C 291.394531 66.3125 283.542969 58.457031 283.542969 48.761719 C 283.542969 39.070312 291.394531 31.210938 301.082031 31.210938 C 310.769531 31.210938 318.625 39.070312 318.625 48.761719 Z M 318.625 48.761719 "/>
<path style=" stroke:none;fill-rule:nonzero;fill:rgb(94.901961%,94.901961%,94.901961%);fill-opacity:1;" d="M 437.148438 326.800781 C 463.222656 306.929688 475.671875 273.539062 467.878906 241.683594 C 467.683594 240.894531 467.480469 240.105469 467.265625 239.316406 C 462.097656 220.410156 449.308594 202.4375 430.671875 196.398438 C 415.027344 191.324219 397.945312 195.226562 381.621094 193.207031 C 349.574219 189.25 324.730469 163.304688 307.25 136.136719 C 289.769531 108.972656 276.335938 78.566406 253.105469 56.125 C 214.816406 19.132812 152.359375 11.167969 104.886719 35.246094 C 57.414062 59.324219 27.171875 112.746094 28.464844 165.988281 C 29.753906 219.230469 61.339844 270.132812 107.210938 297.140625 C 124.0625 307.0625 143.554688 314.089844 162.949219 311.628906 C 179.78125 309.496094 195.074219 300.445312 211.824219 297.761719 C 238.164062 293.535156 264.332031 305.453125 287.109375 319.335938 C 309.890625 333.222656 331.894531 349.679688 357.777344 356.117188 C 382.914062 362.367188 414.054688 344.402344 437.148438 326.800781 Z M 437.148438 326.800781 "/>
<path style=" stroke:none;fill-rule:nonzero;fill:rgb(24.705882%,23.921569%,33.72549%);fill-opacity:1;" d="M 399.691406 36.363281 C 399.117188 35.984375 398.539062 35.621094 397.96875 35.253906 C 381.449219 24.679688 363.742188 16.089844 345.210938 9.664062 L 340.914062 68.96875 L 313.679688 68.96875 L 313.679688 1.003906 C 311.964844 0.652344 310.238281 0.316406 308.507812 0 L 308.507812 68.96875 L 276.140625 68.96875 C 239.039062 68.96875 208.957031 38.871094 208.957031 1.742188 C 207.222656 2.117188 205.503906 2.519531 203.78125 2.945312 L 203.78125 68.96875 L 177.417969 68.96875 L 173.328125 12.417969 C 154.285156 19.722656 136.207031 29.332031 119.5 41.03125 C 119.210938 41.226562 118.921875 41.433594 118.636719 41.628906 C 117.1875 42.648438 115.753906 43.6875 114.328125 44.738281 L 114.328125 270.988281 L 192.023438 270.988281 L 190.648438 251.960938 L 183.09375 147.476562 L 335.234375 147.476562 L 327.679688 251.960938 L 326.304688 270.988281 L 403.140625 270.988281 L 403.140625 38.652344 C 401.996094 37.875 400.847656 37.113281 399.691406 36.363281 Z M 203.78125 130.21875 L 181.847656 130.21875 L 177.792969 74.148438 L 203.78125 74.148438 Z M 308.507812 130.21875 L 271.667969 130.21875 L 271.667969 129.109375 C 271.667969 128.03125 271.238281 126.996094 270.476562 126.234375 C 269.714844 125.472656 268.679688 125.042969 267.601562 125.046875 L 251.585938 125.046875 C 249.34375 125.046875 247.527344 126.863281 247.527344 129.109375 L 247.527344 130.21875 L 208.957031 130.21875 L 208.957031 74.148438 L 308.507812 74.148438 Z M 313.679688 130.21875 L 313.679688 74.148438 L 340.539062 74.148438 L 336.488281 130.21875 Z M 313.679688 130.21875 "/>
<path style=" stroke:none;fill-rule:nonzero;fill:rgb(24.705882%,23.921569%,33.72549%);fill-opacity:1;" d="M 0 285.476562 C 5.707031 292.246094 11.878906 298.601562 18.472656 304.507812 L 498.410156 305.164062 C 505.003906 299.261719 511.175781 292.902344 516.882812 286.136719 Z M 0 285.476562 "/>
<path style=" stroke:none;fill-rule:nonzero;fill:rgb(24.705882%,23.921569%,33.72549%);fill-opacity:1;" d="M 325.460938 224.542969 L 325.460938 280.878906 C 325.460938 282.375 326.671875 283.585938 328.167969 283.585938 L 411.597656 283.585938 C 413.09375 283.585938 414.304688 282.375 414.304688 280.878906 L 414.304688 224.542969 C 414.300781 223.050781 413.089844 221.839844 411.597656 221.839844 L 328.167969 221.839844 C 326.671875 221.839844 325.464844 223.050781 325.460938 224.542969 Z M 325.460938 224.542969 "/>
<path style=" stroke:none;fill-rule:nonzero;fill:rgb(20.392157%,19.607843%,26.27451%);fill-opacity:1;" d="M 327.417969 225.242188 L 327.417969 280.183594 C 327.417969 280.984375 328.066406 281.628906 328.863281 281.632812 L 410.902344 281.632812 C 411.703125 281.628906 412.347656 280.984375 412.351562 280.183594 L 412.351562 225.242188 C 412.351562 224.445312 411.703125 223.796875 410.902344 223.792969 L 328.863281 223.792969 C 328.066406 223.796875 327.417969 224.445312 327.417969 225.242188 Z M 327.417969 225.242188 "/>
<path style=" stroke:none;fill-rule:nonzero;fill:rgb(18.431373%,18.039216%,25.490196%);fill-opacity:1;" d="M 323.714844 291.867188 C 324.023438 292.253906 324.496094 292.480469 324.992188 292.476562 L 414.328125 292.476562 C 414.824219 292.476562 415.292969 292.253906 415.601562 291.867188 C 415.914062 291.484375 416.035156 290.980469 415.933594 290.496094 L 414.546875 283.902344 C 414.433594 283.359375 414.046875 282.910156 413.523438 282.710938 C 413.339844 282.636719 413.140625 282.597656 412.941406 282.597656 L 326.375 282.597656 C 326.171875 282.597656 325.976562 282.636719 325.789062 282.710938 C 325.269531 282.910156 324.882812 283.359375 324.765625 283.902344 L 323.378906 290.496094 C 323.28125 290.980469 323.402344 291.484375 323.714844 291.867188 Z M 323.714844 291.867188 "/>
<path style=" stroke:none;fill-rule:nonzero;fill:rgb(24.705882%,23.921569%,33.72549%);fill-opacity:1;" d="M 411.988281 285.4375 L 409.875 285.4375 C 409.699219 285.4375 409.554688 285.292969 409.554688 285.117188 L 409.554688 284.105469 C 409.554688 283.929688 409.699219 283.785156 409.875 283.785156 L 411.988281 283.785156 C 412.164062 283.785156 412.308594 283.929688 412.308594 284.105469 L 412.308594 285.117188 C 412.308594 285.292969 412.164062 285.4375 411.988281 285.4375 Z M 411.988281 285.4375 "/>
<path style=" stroke:none;fill-rule:nonzero;fill:rgb(24.705882%,23.921569%,33.72549%);fill-opacity:1;" d="M 406.484375 285.4375 L 404.375 285.4375 C 404.195312 285.4375 404.054688 285.292969 404.054688 285.117188 L 404.054688 284.105469 C 404.054688 283.929688 404.195312 283.785156 404.375 283.785156 L 406.484375 283.785156 C 406.660156 283.785156 406.804688 283.929688 406.804688 284.105469 L 406.804688 285.117188 C 406.804688 285.292969 406.660156 285.4375 406.484375 285.4375 Z M 406.484375 285.4375 "/>
<path style=" stroke:none;fill-rule:nonzero;fill:rgb(24.705882%,23.921569%,33.72549%);fill-opacity:1;" d="M 400.980469 285.4375 L 398.871094 285.4375 C 398.691406 285.4375 398.550781 285.292969 398.550781 285.117188 L 398.550781 284.105469 C 398.550781 283.929688 398.691406 283.785156 398.871094 283.785156 L 400.980469 283.785156 C 401.15625 283.785156 401.300781 283.929688 401.300781 284.105469 L 401.300781 285.117188 C 401.300781 285.292969 401.15625 285.4375 400.980469 285.4375 Z M 400.980469 285.4375 "/>
<path style=" stroke:none;fill-rule:nonzero;fill:rgb(24.705882%,23.921569%,33.72549%);fill-opacity:1;" d="M 395.476562 285.4375 L 393.367188 285.4375 C 393.191406 285.4375 393.046875 285.292969 393.046875 285.117188 L 393.046875 284.105469 C 393.046875 283.929688 393.191406 283.785156 393.367188 283.785156 L 395.476562 283.785156 C 395.65625 283.785156 395.796875 283.929688 395.796875 284.105469 L 395.796875 285.117188 C 395.796875 285.292969 395.65625 285.4375 395.476562 285.4375 Z M 395.476562 285.4375 "/>
<path style=" stroke:none;fill-rule:nonzero;fill:rgb(24.705882%,23.921569%,33.72549%);fill-opacity:1;" d="M 389.972656 285.4375 L 387.863281 285.4375 C 387.6875 285.4375 387.542969 285.292969 387.542969 285.117188 L 387.542969 284.105469 C 387.542969 283.929688 387.6875 283.785156 387.863281 283.785156 L 389.972656 283.785156 C 390.152344 283.785156 390.296875 283.929688 390.296875 284.105469 L 390.296875 285.117188 C 390.296875 285.292969 390.152344 285.4375 389.972656 285.4375 Z M 389.972656 285.4375 "/>
<path style=" stroke:none;fill-rule:nonzero;fill:rgb(24.705882%,23.921569%,33.72549%);fill-opacity:1;" d="M 384.472656 285.4375 L 382.359375 285.4375 C 382.183594 285.4375 382.039062 285.292969 382.039062 285.117188 L 382.039062 284.105469 C 382.039062 283.929688 382.183594 283.785156 382.359375 283.785156 L 384.472656 283.785156 C 384.648438 283.785156 384.792969 283.929688 384.792969 284.105469 L 384.792969 285.117188 C 384.792969 285.292969 384.648438 285.4375 384.472656 285.4375 Z M 384.472656 285.4375 "/>
<path style=" stroke:none;fill-rule:nonzero;fill:rgb(24.705882%,23.921569%,33.72549%);fill-opacity:1;" d="M 378.96875 285.4375 L 376.859375 285.4375 C 376.679688 285.4375 376.539062 285.292969 376.539062 285.117188 L 376.539062 284.105469 C 376.539062 283.929688 376.679688 283.785156 376.859375 283.785156 L 378.96875 283.785156 C 379.144531 283.785156 379.289062 283.929688 379.289062 284.105469 L 379.289062 285.117188 C 379.289062 285.292969 379.144531 285.4375 378.96875 285.4375 Z M 378.96875 285.4375 "/>
<path style=" stroke:none;fill-rule:nonzero;fill:rgb(24.705882%,23.921569%,33.72549%);fill-opacity:1;" d="M 373.464844 285.4375 L 371.355469 285.4375 C 371.179688 285.4375 371.035156 285.292969 371.035156 285.117188 L 371.035156 284.105469 C 371.035156 283.929688 371.179688 283.785156 371.355469 283.785156 L 373.464844 283.785156 C 373.640625 283.785156 373.785156 283.929688 373.785156 284.105469 L 373.785156 285.117188 C 373.785156 285.292969 373.640625 285.4375 373.464844 285.4375 Z M 373.464844 285.4375 "/>
<path style=" stroke:none;fill-rule:nonzero;fill:rgb(24.705882%,23.921569%,33.72549%);fill-opacity:1;" d="M 367.960938 285.4375 L 365.851562 285.4375 C 365.675781 285.4375 365.53125 285.292969 365.53125 285.117188 L 365.53125 284.105469 C 365.53125 283.929688 365.675781 283.785156 365.851562 283.785156 L 367.960938 283.785156 C 368.140625 283.785156 368.28125 283.929688 368.28125 284.105469 L 368.28125 285.117188 C 368.28125 285.292969 368.140625 285.4375 367.960938 285.4375 Z M 367.960938 285.4375 "/>
<path style=" stroke:none;fill-rule:nonzero;fill:rgb(24.705882%,23.921569%,33.72549%);fill-opacity:1;" d="M 362.460938 285.4375 L 360.347656 285.4375 C 360.171875 285.4375 360.027344 285.292969 360.027344 285.117188 L 360.027344 284.105469 C 360.027344 283.929688 360.171875 283.785156 360.347656 283.785156 L 362.460938 283.785156 C 362.636719 283.785156 362.78125 283.929688 362.78125 284.105469 L 362.78125 285.117188 C 362.78125 285.292969 362.636719 285.4375 362.460938 285.4375 Z M 362.460938 285.4375 "/>
<path style=" stroke:none;fill-rule:nonzero;fill:rgb(24.705882%,23.921569%,33.72549%);fill-opacity:1;" d="M 356.957031 285.4375 L 354.847656 285.4375 C 354.667969 285.4375 354.523438 285.292969 354.523438 285.117188 L 354.523438 284.105469 C 354.523438 283.929688 354.667969 283.785156 354.847656 283.785156 L 356.957031 283.785156 C 357.132812 283.785156 357.277344 283.929688 357.277344 284.105469 L 357.277344 285.117188 C 357.277344 285.292969 357.132812 285.4375 356.957031 285.4375 Z M 356.957031 285.4375 "/>
<path style=" stroke:none;fill-rule:nonzero;fill:rgb(24.705882%,23.921569%,33.72549%);fill-opacity:1;" d="M 351.453125 285.4375 L 349.34375 285.4375 C 349.164062 285.4375 349.023438 285.292969 349.023438 285.117188 L 349.023438 284.105469 C 349.023438 283.929688 349.164062 283.785156 349.34375 283.785156 L 351.453125 283.785156 C 351.628906 283.785156 351.773438 283.929688 351.773438 284.105469 L 351.773438 285.117188 C 351.773438 285.292969 351.628906 285.4375 351.453125 285.4375 Z M 351.453125 285.4375 "/>
<path style=" stroke:none;fill-rule:nonzero;fill:rgb(24.705882%,23.921569%,33.72549%);fill-opacity:1;" d="M 345.949219 285.4375 L 343.839844 285.4375 C 343.664062 285.4375 343.519531 285.292969 343.519531 285.117188 L 343.519531 284.105469 C 343.519531 283.929688 343.664062 283.785156 343.839844 283.785156 L 345.949219 283.785156 C 346.128906 283.785156 346.269531 283.929688 346.269531 284.105469 L 346.269531 285.117188 C 346.269531 285.292969 346.128906 285.4375 345.949219 285.4375 Z M 345.949219 285.4375 "/>
<path style=" stroke:none;fill-rule:nonzero;fill:rgb(24.705882%,23.921569%,33.72549%);fill-opacity:1;" d="M 340.445312 285.4375 L 338.335938 285.4375 C 338.160156 285.4375 338.015625 285.292969 338.015625 285.117188 L 338.015625 284.105469 C 338.015625 283.929688 338.160156 283.785156 338.335938 283.785156 L 340.445312 283.785156 C 340.625 283.785156 340.769531 283.929688 340.769531 284.105469 L 340.769531 285.117188 C 340.769531 285.292969 340.625 285.4375 340.445312 285.4375 Z M 340.445312 285.4375 "/>
<path style=" stroke:none;fill-rule:nonzero;fill:rgb(24.705882%,23.921569%,33.72549%);fill-opacity:1;" d="M 334.945312 285.4375 L 332.832031 285.4375 C 332.65625 285.4375 332.511719 285.292969 332.511719 285.117188 L 332.511719 284.105469 C 332.511719 283.929688 332.65625 283.785156 332.832031 283.785156 L 334.945312 283.785156 C 335.121094 283.785156 335.265625 283.929688 335.265625 284.105469 L 335.265625 285.117188 C 335.265625 285.292969 335.121094 285.4375 334.945312 285.4375 Z M 334.945312 285.4375 "/>
<path style=" stroke:none;fill-rule:nonzero;fill:rgb(24.705882%,23.921569%,33.72549%);fill-opacity:1;" d="M 329.441406 285.4375 L 327.332031 285.4375 C 327.152344 285.4375 327.011719 285.292969 327.011719 285.117188 L 327.011719 284.105469 C 327.011719 283.929688 327.152344 283.785156 327.332031 283.785156 L 329.441406 283.785156 C 329.617188 283.785156 329.761719 283.929688 329.761719 284.105469 L 329.761719 285.117188 C 329.761719 285.292969 329.617188 285.4375 329.441406 285.4375 Z M 329.441406 285.4375 "/>
<path style=" stroke:none;fill-rule:nonzero;fill:rgb(24.705882%,23.921569%,33.72549%);fill-opacity:1;" d="M 412.050781 288.191406 L 409.941406 288.191406 C 409.765625 288.191406 409.621094 288.046875 409.621094 287.871094 L 409.621094 286.859375 C 409.621094 286.683594 409.765625 286.539062 409.941406 286.539062 L 412.050781 286.539062 C 412.230469 286.539062 412.371094 286.683594 412.371094 286.859375 L 412.371094 287.871094 C 412.371094 288.046875 412.230469 288.191406 412.050781 288.191406 Z M 412.050781 288.191406 "/>
<path style=" stroke:none;fill-rule:nonzero;fill:rgb(24.705882%,23.921569%,33.72549%);fill-opacity:1;" d="M 406.546875 288.191406 L 404.4375 288.191406 C 404.261719 288.191406 404.117188 288.046875 404.117188 287.871094 L 404.117188 286.859375 C 404.117188 286.683594 404.261719 286.539062 404.4375 286.539062 L 406.546875 286.539062 C 406.726562 286.539062 406.871094 286.683594 406.871094 286.859375 L 406.871094 287.871094 C 406.871094 288.046875 406.726562 288.191406 406.546875 288.191406 Z M 406.546875 288.191406 "/>
<path style=" stroke:none;fill-rule:nonzero;fill:rgb(24.705882%,23.921569%,33.72549%);fill-opacity:1;" d="M 401.046875 288.191406 L 398.933594 288.191406 C 398.757812 288.191406 398.613281 288.046875 398.613281 287.871094 L 398.613281 286.859375 C 398.613281 286.683594 398.757812 286.539062 398.933594 286.539062 L 401.046875 286.539062 C 401.222656 286.539062 401.367188 286.683594 401.367188 286.859375 L 401.367188 287.871094 C 401.367188 288.046875 401.222656 288.191406 401.046875 288.191406 Z M 401.046875 288.191406 "/>
<path style=" stroke:none;fill-rule:nonzero;fill:rgb(24.705882%,23.921569%,33.72549%);fill-opacity:1;" d="M 395.542969 288.191406 L 393.433594 288.191406 C 393.253906 288.191406 393.113281 288.046875 393.113281 287.871094 L 393.113281 286.859375 C 393.113281 286.683594 393.253906 286.539062 393.433594 286.539062 L 395.542969 286.539062 C 395.71875 286.539062 395.863281 286.683594 395.863281 286.859375 L 395.863281 287.871094 C 395.863281 288.046875 395.71875 288.191406 395.542969 288.191406 Z M 395.542969 288.191406 "/>
<path style=" stroke:none;fill-rule:nonzero;fill:rgb(24.705882%,23.921569%,33.72549%);fill-opacity:1;" d="M 390.039062 288.191406 L 387.929688 288.191406 C 387.753906 288.191406 387.609375 288.046875 387.609375 287.871094 L 387.609375 286.859375 C 387.609375 286.683594 387.753906 286.539062 387.929688 286.539062 L 390.039062 286.539062 C 390.214844 286.539062 390.359375 286.683594 390.359375 286.859375 L 390.359375 287.871094 C 390.359375 288.046875 390.214844 288.191406 390.039062 288.191406 Z M 390.039062 288.191406 "/>
<path style=" stroke:none;fill-rule:nonzero;fill:rgb(24.705882%,23.921569%,33.72549%);fill-opacity:1;" d="M 384.535156 288.191406 L 382.425781 288.191406 C 382.25 288.191406 382.105469 288.046875 382.105469 287.871094 L 382.105469 286.859375 C 382.105469 286.683594 382.25 286.539062 382.425781 286.539062 L 384.535156 286.539062 C 384.714844 286.539062 384.855469 286.683594 384.855469 286.859375 L 384.855469 287.871094 C 384.855469 288.046875 384.714844 288.191406 384.535156 288.191406 Z M 384.535156 288.191406 "/>
<path style=" stroke:none;fill-rule:nonzero;fill:rgb(24.705882%,23.921569%,33.72549%);fill-opacity:1;" d="M 379.035156 288.191406 L 376.921875 288.191406 C 376.746094 288.191406 376.601562 288.046875 376.601562 287.871094 L 376.601562 286.859375 C 376.601562 286.683594 376.746094 286.539062 376.921875 286.539062 L 379.035156 286.539062 C 379.210938 286.539062 379.355469 286.683594 379.355469 286.859375 L 379.355469 287.871094 C 379.355469 288.046875 379.210938 288.191406 379.035156 288.191406 Z M 379.035156 288.191406 "/>
<path style=" stroke:none;fill-rule:nonzero;fill:rgb(24.705882%,23.921569%,33.72549%);fill-opacity:1;" d="M 373.53125 288.191406 L 371.421875 288.191406 C 371.242188 288.191406 371.097656 288.046875 371.097656 287.871094 L 371.097656 286.859375 C 371.097656 286.683594 371.242188 286.539062 371.421875 286.539062 L 373.53125 286.539062 C 373.707031 286.539062 373.851562 286.683594 373.851562 286.859375 L 373.851562 287.871094 C 373.851562 288.046875 373.707031 288.191406 373.53125 288.191406 Z M 373.53125 288.191406 "/>
<path style=" stroke:none;fill-rule:nonzero;fill:rgb(24.705882%,23.921569%,33.72549%);fill-opacity:1;" d="M 368.027344 288.191406 L 365.917969 288.191406 C 365.738281 288.191406 365.597656 288.046875 365.597656 287.871094 L 365.597656 286.859375 C 365.597656 286.683594 365.738281 286.539062 365.917969 286.539062 L 368.027344 286.539062 C 368.203125 286.539062 368.347656 286.683594 368.347656 286.859375 L 368.347656 287.871094 C 368.347656 288.046875 368.203125 288.191406 368.027344 288.191406 Z M 368.027344 288.191406 "/>
<path style=" stroke:none;fill-rule:nonzero;fill:rgb(24.705882%,23.921569%,33.72549%);fill-opacity:1;" d="M 362.523438 288.191406 L 360.414062 288.191406 C 360.238281 288.191406 360.09375 288.046875 360.09375 287.871094 L 360.09375 286.859375 C 360.09375 286.683594 360.238281 286.539062 360.414062 286.539062 L 362.523438 286.539062 C 362.703125 286.539062 362.84375 286.683594 362.84375 286.859375 L 362.84375 287.871094 C 362.84375 288.046875 362.703125 288.191406 362.523438 288.191406 Z M 362.523438 288.191406 "/>
<path style=" stroke:none;fill-rule:nonzero;fill:rgb(24.705882%,23.921569%,33.72549%);fill-opacity:1;" d="M 357.019531 288.191406 L 354.910156 288.191406 C 354.734375 288.191406 354.589844 288.046875 354.589844 287.871094 L 354.589844 286.859375 C 354.589844 286.683594 354.734375 286.539062 354.910156 286.539062 L 357.019531 286.539062 C 357.199219 286.539062 357.34375 286.683594 357.34375 286.859375 L 357.34375 287.871094 C 357.34375 288.046875 357.199219 288.191406 357.019531 288.191406 Z M 357.019531 288.191406 "/>
<path style=" stroke:none;fill-rule:nonzero;fill:rgb(24.705882%,23.921569%,33.72549%);fill-opacity:1;" d="M 351.519531 288.191406 L 349.40625 288.191406 C 349.230469 288.191406 349.085938 288.046875 349.085938 287.871094 L 349.085938 286.859375 C 349.085938 286.683594 349.230469 286.539062 349.40625 286.539062 L 351.519531 286.539062 C 351.695312 286.539062 351.839844 286.683594 351.839844 286.859375 L 351.839844 287.871094 C 351.839844 288.046875 351.695312 288.191406 351.519531 288.191406 Z M 351.519531 288.191406 "/>
<path style=" stroke:none;fill-rule:nonzero;fill:rgb(24.705882%,23.921569%,33.72549%);fill-opacity:1;" d="M 346.015625 288.191406 L 343.90625 288.191406 C 343.726562 288.191406 343.585938 288.046875 343.585938 287.871094 L 343.585938 286.859375 C 343.585938 286.683594 343.726562 286.539062 343.90625 286.539062 L 346.015625 286.539062 C 346.191406 286.539062 346.335938 286.683594 346.335938 286.859375 L 346.335938 287.871094 C 346.335938 288.046875 346.191406 288.191406 346.015625 288.191406 Z M 346.015625 288.191406 "/>
<path style=" stroke:none;fill-rule:nonzero;fill:rgb(24.705882%,23.921569%,33.72549%);fill-opacity:1;" d="M 340.511719 288.191406 L 338.402344 288.191406 C 338.226562 288.191406 338.082031 288.046875 338.082031 287.871094 L 338.082031 286.859375 C 338.082031 286.683594 338.226562 286.539062 338.402344 286.539062 L 340.511719 286.539062 C 340.6875 286.539062 340.832031 286.683594 340.832031 286.859375 L 340.832031 287.871094 C 340.832031 288.046875 340.6875 288.191406 340.511719 288.191406 Z M 340.511719 288.191406 "/>
<path style=" stroke:none;fill-rule:nonzero;fill:rgb(24.705882%,23.921569%,33.72549%);fill-opacity:1;" d="M 335.007812 288.191406 L 332.898438 288.191406 C 332.722656 288.191406 332.578125 288.046875 332.578125 287.871094 L 332.578125 286.859375 C 332.578125 286.683594 332.722656 286.539062 332.898438 286.539062 L 335.007812 286.539062 C 335.1875 286.539062 335.328125 286.683594 335.328125 286.859375 L 335.328125 287.871094 C 335.328125 288.046875 335.1875 288.191406 335.007812 288.191406 Z M 335.007812 288.191406 "/>
<path style=" stroke:none;fill-rule:nonzero;fill:rgb(24.705882%,23.921569%,33.72549%);fill-opacity:1;" d="M 329.507812 288.191406 L 327.394531 288.191406 C 327.21875 288.191406 327.074219 288.046875 327.074219 287.871094 L 327.074219 286.859375 C 327.074219 286.683594 327.21875 286.539062 327.394531 286.539062 L 329.507812 286.539062 C 329.683594 286.539062 329.828125 286.683594 329.828125 286.859375 L 329.828125 287.871094 C 329.828125 288.046875 329.683594 288.191406 329.507812 288.191406 Z M 329.507812 288.191406 "/>
<path style=" stroke:none;fill-rule:nonzero;fill:rgb(24.705882%,23.921569%,33.72549%);fill-opacity:1;" d="M 385.636719 291.496094 L 364.265625 291.496094 C 364.089844 291.496094 363.945312 291.351562 363.945312 291.175781 L 363.945312 290.164062 C 363.945312 289.988281 364.089844 289.84375 364.265625 289.84375 L 385.636719 289.84375 C 385.8125 289.84375 385.957031 289.988281 385.957031 290.164062 L 385.957031 291.175781 C 385.957031 291.351562 385.8125 291.496094 385.636719 291.496094 Z M 385.636719 291.496094 "/>
<path style=" stroke:none;fill-rule:nonzero;fill:rgb(100%,100%,100%);fill-opacity:1;" d="M 339.757812 235.8125 L 341.625 235.8125 C 342.191406 235.8125 342.648438 236.273438 342.648438 236.839844 C 342.648438 237.40625 342.191406 237.867188 341.625 237.867188 L 339.757812 237.867188 C 339.191406 237.867188 338.730469 237.40625 338.730469 236.839844 C 338.730469 236.273438 339.191406 235.8125 339.757812 235.8125 Z M 339.757812 235.8125 "/>
<path style=" stroke:none;fill-rule:nonzero;fill:rgb(100%,100%,100%);fill-opacity:1;" d="M 361.121094 235.8125 L 362.988281 235.8125 C 363.554688 235.8125 364.015625 236.273438 364.015625 236.839844 C 364.015625 237.40625 363.554688 237.867188 362.988281 237.867188 L 361.121094 237.867188 C 360.554688 237.867188 360.097656 237.40625 360.097656 236.839844 C 360.097656 236.273438 360.554688 235.8125 361.121094 235.8125 Z M 361.121094 235.8125 "/>
<path style=" stroke:none;fill-rule:nonzero;fill:rgb(100%,100%,100%);fill-opacity:1;" d="M 367.175781 235.8125 L 369.042969 235.8125 C 369.609375 235.8125 370.070312 236.273438 370.070312 236.839844 C 370.070312 237.40625 369.609375 237.867188 369.042969 237.867188 L 367.175781 237.867188 C 366.609375 237.867188 366.148438 237.40625 366.148438 236.839844 C 366.148438 236.273438 366.609375 235.8125 367.175781 235.8125 Z M 367.175781 235.8125 "/>
<path style=" stroke:none;fill-rule:nonzero;fill:rgb(100%,100%,100%);fill-opacity:1;" d="M 345.566406 235.640625 L 357.179688 235.640625 C 357.746094 235.640625 358.203125 236.101562 358.203125 236.667969 C 358.203125 237.234375 357.746094 237.695312 357.179688 237.695312 L 345.566406 237.695312 C 345 237.695312 344.542969 237.234375 344.542969 236.667969 C 344.542969 236.101562 345 235.640625 345.566406 235.640625 Z M 345.566406 235.640625 "/>
<path style=" stroke:none;fill-rule:nonzero;fill:rgb(100%,100%,100%);fill-opacity:1;" d="M 374.054688 235.640625 L 385.664062 235.640625 C 386.230469 235.640625 386.691406 236.101562 386.691406 236.667969 C 386.691406 237.234375 386.230469 237.695312 385.664062 237.695312 L 374.054688 237.695312 C 373.488281 237.695312 373.027344 237.234375 373.027344 236.667969 C 373.027344 236.101562 373.488281 235.640625 374.054688 235.640625 Z M 374.054688 235.640625 "/>
<path style=" stroke:none;fill-rule:nonzero;fill:rgb(100%,100%,100%);fill-opacity:1;" d="M 345.453125 240.445312 L 347.320312 240.445312 C 347.886719 240.445312 348.347656 240.90625 348.347656 241.472656 C 348.347656 242.039062 347.886719 242.496094 347.320312 242.496094 L 345.453125 242.496094 C 344.886719 242.496094 344.429688 242.039062 344.429688 241.472656 C 344.429688 240.90625 344.886719 240.445312 345.453125 240.445312 Z M 345.453125 240.445312 "/>
<path style=" stroke:none;fill-rule:nonzero;fill:rgb(100%,100%,100%);fill-opacity:1;" d="M 366.820312 240.445312 L 368.6875 240.445312 C 369.253906 240.445312 369.710938 240.90625 369.710938 241.472656 C 369.710938 242.039062 369.253906 242.496094 368.6875 242.496094 L 366.820312 242.496094 C 366.253906 242.496094 365.792969 242.039062 365.792969 241.472656 C 365.792969 240.90625 366.253906 240.445312 366.820312 240.445312 Z M 366.820312 240.445312 "/>
<path style=" stroke:none;fill-rule:nonzero;fill:rgb(100%,100%,100%);fill-opacity:1;" d="M 372.871094 240.445312 L 374.742188 240.445312 C 375.308594 240.445312 375.765625 240.90625 375.765625 241.472656 C 375.765625 242.039062 375.308594 242.496094 374.742188 242.496094 L 372.871094 242.496094 C 372.304688 242.496094 371.847656 242.039062 371.847656 241.472656 C 371.847656 240.90625 372.304688 240.445312 372.871094 240.445312 Z M 372.871094 240.445312 "/>
<path style=" stroke:none;fill-rule:nonzero;fill:rgb(100%,100%,100%);fill-opacity:1;" d="M 351.265625 240.273438 L 362.875 240.273438 C 363.441406 240.273438 363.902344 240.734375 363.902344 241.300781 C 363.902344 241.867188 363.441406 242.328125 362.875 242.328125 L 351.265625 242.328125 C 350.699219 242.328125 350.238281 241.867188 350.238281 241.300781 C 350.238281 240.734375 350.699219 240.273438 351.265625 240.273438 Z M 351.265625 240.273438 "/>
<path style=" stroke:none;fill-rule:nonzero;fill:rgb(100%,100%,100%);fill-opacity:1;" d="M 379.753906 240.273438 L 391.363281 240.273438 C 391.929688 240.273438 392.386719 240.734375 392.386719 241.300781 C 392.386719 241.867188 391.929688 242.328125 391.363281 242.328125 L 379.753906 242.328125 C 379.1875 242.328125 378.726562 241.867188 378.726562 241.300781 C 378.726562 240.734375 379.1875 240.273438 379.753906 240.273438 Z M 379.753906 240.273438 "/>
<path style=" stroke:none;fill-rule:nonzero;fill:rgb(100%,100%,100%);fill-opacity:1;" d="M 351.152344 245.078125 L 353.019531 245.078125 C 353.585938 245.078125 354.042969 245.535156 354.042969 246.101562 C 354.042969 246.671875 353.585938 247.128906 353.019531 247.128906 L 351.152344 247.128906 C 350.585938 247.128906 350.125 246.671875 350.125 246.101562 C 350.125 245.535156 350.585938 245.078125 351.152344 245.078125 Z M 351.152344 245.078125 "/>
<path style=" stroke:none;fill-rule:nonzero;fill:rgb(100%,100%,100%);fill-opacity:1;" d="M 372.515625 245.078125 L 374.382812 245.078125 C 374.949219 245.078125 375.410156 245.535156 375.410156 246.101562 C 375.410156 246.671875 374.949219 247.128906 374.382812 247.128906 L 372.515625 247.128906 C 371.949219 247.128906 371.492188 246.671875 371.492188 246.101562 C 371.492188 245.535156 371.949219 245.078125 372.515625 245.078125 Z M 372.515625 245.078125 "/>
<path style=" stroke:none;fill-rule:nonzero;fill:rgb(100%,100%,100%);fill-opacity:1;" d="M 378.570312 245.078125 L 380.4375 245.078125 C 381.003906 245.078125 381.464844 245.535156 381.464844 246.101562 C 381.464844 246.671875 381.003906 247.128906 380.4375 247.128906 L 378.570312 247.128906 C 378.003906 247.128906 377.542969 246.671875 377.542969 246.101562 C 377.542969 245.535156 378.003906 245.078125 378.570312 245.078125 Z M 378.570312 245.078125 "/>
<path style=" stroke:none;fill-rule:nonzero;fill:rgb(100%,100%,100%);fill-opacity:1;" d="M 356.960938 244.90625 L 368.574219 244.90625 C 369.140625 244.90625 369.597656 245.367188 369.597656 245.933594 C 369.597656 246.5 369.140625 246.957031 368.574219 246.957031 L 356.960938 246.957031 C 356.394531 246.957031 355.9375 246.5 355.9375 245.933594 C 355.9375 245.367188 356.394531 244.90625 356.960938 244.90625 Z M 356.960938 244.90625 "/>
<path style=" stroke:none;fill-rule:nonzero;fill:rgb(100%,100%,100%);fill-opacity:1;" d="M 385.449219 244.90625 L 397.058594 244.90625 C 397.625 244.90625 398.085938 245.367188 398.085938 245.933594 C 398.085938 246.5 397.625 246.957031 397.058594 246.957031 L 385.449219 246.957031 C 384.882812 246.957031 384.425781 246.5 384.425781 245.933594 C 384.425781 245.367188 384.882812 244.90625 385.449219 244.90625 Z M 385.449219 244.90625 "/>
<path style=" stroke:none;fill-rule:nonzero;fill:rgb(100%,100%,100%);fill-opacity:1;" d="M 356.847656 249.710938 L 358.714844 249.710938 C 359.28125 249.710938 359.742188 250.167969 359.742188 250.734375 C 359.742188 251.300781 359.28125 251.761719 358.714844 251.761719 L 356.847656 251.761719 C 356.28125 251.761719 355.824219 251.300781 355.824219 250.734375 C 355.824219 250.167969 356.28125 249.710938 356.847656 249.710938 Z M 356.847656 249.710938 "/>
<path style=" stroke:none;fill-rule:nonzero;fill:rgb(100%,100%,100%);fill-opacity:1;" d="M 378.214844 249.710938 L 380.082031 249.710938 C 380.648438 249.710938 381.105469 250.167969 381.105469 250.734375 C 381.105469 251.300781 380.648438 251.761719 380.082031 251.761719 L 378.214844 251.761719 C 377.648438 251.761719 377.1875 251.300781 377.1875 250.734375 C 377.1875 250.167969 377.648438 249.710938 378.214844 249.710938 Z M 378.214844 249.710938 "/>
<path style=" stroke:none;fill-rule:nonzero;fill:rgb(100%,100%,100%);fill-opacity:1;" d="M 384.265625 249.710938 L 386.136719 249.710938 C 386.703125 249.710938 387.160156 250.167969 387.160156 250.734375 C 387.160156 251.300781 386.703125 251.761719 386.136719 251.761719 L 384.265625 251.761719 C 383.699219 251.761719 383.242188 251.300781 383.242188 250.734375 C 383.242188 250.167969 383.699219 249.710938 384.265625 249.710938 Z M 384.265625 249.710938 "/>
<path style=" stroke:none;fill-rule:nonzero;fill:rgb(100%,100%,100%);fill-opacity:1;" d="M 362.660156 249.539062 L 374.269531 249.539062 C 374.835938 249.539062 375.296875 249.996094 375.296875 250.566406 C 375.296875 251.132812 374.835938 251.589844 374.269531 251.589844 L 362.660156 251.589844 C 362.09375 251.589844 361.632812 251.132812 361.632812 250.566406 C 361.632812 249.996094 362.09375 249.539062 362.660156 249.539062 Z M 362.660156 249.539062 "/>
<path style=" stroke:none;fill-rule:nonzero;fill:rgb(100%,100%,100%);fill-opacity:1;" d="M 361.121094 268.128906 L 362.988281 268.128906 C 363.554688 268.128906 364.015625 268.585938 364.015625 269.15625 C 364.015625 269.722656 363.554688 270.179688 362.988281 270.179688 L 361.121094 270.179688 C 360.554688 270.179688 360.097656 269.722656 360.097656 269.15625 C 360.097656 268.585938 360.554688 268.128906 361.121094 268.128906 Z M 361.121094 268.128906 "/>
<path style=" stroke:none;fill-rule:nonzero;fill:rgb(100%,100%,100%);fill-opacity:1;" d="M 367.175781 268.128906 L 369.042969 268.128906 C 369.609375 268.128906 370.070312 268.585938 370.070312 269.15625 C 370.070312 269.722656 369.609375 270.179688 369.042969 270.179688 L 367.175781 270.179688 C 366.609375 270.179688 366.148438 269.722656 366.148438 269.15625 C 366.148438 268.585938 366.609375 268.128906 367.175781 268.128906 Z M 367.175781 268.128906 "/>
<path style=" stroke:none;fill-rule:nonzero;fill:rgb(100%,100%,100%);fill-opacity:1;" d="M 374.054688 268.300781 L 385.664062 268.300781 C 386.230469 268.300781 386.691406 268.757812 386.691406 269.324219 C 386.691406 269.890625 386.230469 270.351562 385.664062 270.351562 L 374.054688 270.351562 C 373.488281 270.351562 373.027344 269.890625 373.027344 269.324219 C 373.027344 268.757812 373.488281 268.300781 374.054688 268.300781 Z M 374.054688 268.300781 "/>
<path style=" stroke:none;fill-rule:nonzero;fill:rgb(100%,100%,100%);fill-opacity:1;" d="M 339.757812 268.128906 L 341.625 268.128906 C 342.191406 268.128906 342.648438 268.585938 342.648438 269.15625 C 342.648438 269.722656 342.191406 270.179688 341.625 270.179688 L 339.757812 270.179688 C 339.191406 270.179688 338.730469 269.722656 338.730469 269.15625 C 338.730469 268.585938 339.191406 268.128906 339.757812 268.128906 Z M 339.757812 268.128906 "/>
<path style=" stroke:none;fill-rule:nonzero;fill:rgb(100%,100%,100%);fill-opacity:1;" d="M 345.566406 268.300781 L 357.179688 268.300781 C 357.746094 268.300781 358.203125 268.757812 358.203125 269.324219 C 358.203125 269.890625 357.746094 270.351562 357.179688 270.351562 L 345.566406 270.351562 C 345 270.351562 344.542969 269.890625 344.542969 269.324219 C 344.542969 268.757812 345 268.300781 345.566406 268.300781 Z M 345.566406 268.300781 "/>
<path style=" stroke:none;fill-rule:nonzero;fill:rgb(100%,100%,100%);fill-opacity:1;" d="M 345.453125 263.496094 L 347.320312 263.496094 C 347.886719 263.496094 348.347656 263.957031 348.347656 264.523438 C 348.347656 265.089844 347.886719 265.546875 347.320312 265.546875 L 345.453125 265.546875 C 344.886719 265.546875 344.429688 265.089844 344.429688 264.523438 C 344.429688 263.957031 344.886719 263.496094 345.453125 263.496094 Z M 345.453125 263.496094 "/>
<path style=" stroke:none;fill-rule:nonzero;fill:rgb(100%,100%,100%);fill-opacity:1;" d="M 366.820312 263.496094 L 368.6875 263.496094 C 369.253906 263.496094 369.710938 263.957031 369.710938 264.523438 C 369.710938 265.089844 369.253906 265.546875 368.6875 265.546875 L 366.820312 265.546875 C 366.253906 265.546875 365.792969 265.089844 365.792969 264.523438 C 365.792969 263.957031 366.253906 263.496094 366.820312 263.496094 Z M 366.820312 263.496094 "/>
<path style=" stroke:none;fill-rule:nonzero;fill:rgb(100%,100%,100%);fill-opacity:1;" d="M 372.871094 263.496094 L 374.742188 263.496094 C 375.308594 263.496094 375.765625 263.957031 375.765625 264.523438 C 375.765625 265.089844 375.308594 265.546875 374.742188 265.546875 L 372.871094 265.546875 C 372.304688 265.546875 371.847656 265.089844 371.847656 264.523438 C 371.847656 263.957031 372.304688 263.496094 372.871094 263.496094 Z M 372.871094 263.496094 "/>
<path style=" stroke:none;fill-rule:nonzero;fill:rgb(100%,100%,100%);fill-opacity:1;" d="M 351.265625 263.667969 L 362.875 263.667969 C 363.441406 263.667969 363.902344 264.125 363.902344 264.695312 C 363.902344 265.261719 363.441406 265.71875 362.875 265.71875 L 351.265625 265.71875 C 350.699219 265.71875 350.238281 265.261719 350.238281 264.695312 C 350.238281 264.125 350.699219 263.667969 351.265625 263.667969 Z M 351.265625 263.667969 "/>
<path style=" stroke:none;fill-rule:nonzero;fill:rgb(100%,100%,100%);fill-opacity:1;" d="M 351.152344 258.863281 L 353.019531 258.863281 C 353.585938 258.863281 354.042969 259.324219 354.042969 259.890625 C 354.042969 260.457031 353.585938 260.917969 353.019531 260.917969 L 351.152344 260.917969 C 350.585938 260.917969 350.125 260.457031 350.125 259.890625 C 350.125 259.324219 350.585938 258.863281 351.152344 258.863281 Z M 351.152344 258.863281 "/>
<path style=" stroke:none;fill-rule:nonzero;fill:rgb(100%,100%,100%);fill-opacity:1;" d="M 372.515625 258.863281 L 374.382812 258.863281 C 374.949219 258.863281 375.410156 259.324219 375.410156 259.890625 C 375.410156 260.457031 374.949219 260.917969 374.382812 260.917969 L 372.515625 260.917969 C 371.949219 260.917969 371.492188 260.457031 371.492188 259.890625 C 371.492188 259.324219 371.949219 258.863281 372.515625 258.863281 Z M 372.515625 258.863281 "/>
<path style=" stroke:none;fill-rule:nonzero;fill:rgb(100%,100%,100%);fill-opacity:1;" d="M 378.570312 258.863281 L 380.4375 258.863281 C 381.003906 258.863281 381.464844 259.324219 381.464844 259.890625 C 381.464844 260.457031 381.003906 260.917969 380.4375 260.917969 L 378.570312 260.917969 C 378.003906 260.917969 377.542969 260.457031 377.542969 259.890625 C 377.542969 259.324219 378.003906 258.863281 378.570312 258.863281 Z M 378.570312 258.863281 "/>
<path style=" stroke:none;fill-rule:nonzero;fill:rgb(100%,100%,100%);fill-opacity:1;" d="M 356.960938 259.035156 L 368.574219 259.035156 C 369.140625 259.035156 369.597656 259.496094 369.597656 260.0625 C 369.597656 260.628906 369.140625 261.085938 368.574219 261.085938 L 356.960938 261.085938 C 356.394531 261.085938 355.9375 260.628906 355.9375 260.0625 C 355.9375 259.496094 356.394531 259.035156 356.960938 259.035156 Z M 356.960938 259.035156 "/>
<path style=" stroke:none;fill-rule:nonzero;fill:rgb(100%,100%,100%);fill-opacity:1;" d="M 356.847656 254.230469 L 358.714844 254.230469 C 359.28125 254.230469 359.742188 254.691406 359.742188 255.257812 C 359.742188 255.824219 359.28125 256.285156 358.714844 256.285156 L 356.847656 256.285156 C 356.28125 256.285156 355.824219 255.824219 355.824219 255.257812 C 355.824219 254.691406 356.28125 254.230469 356.847656 254.230469 Z M 356.847656 254.230469 "/>
<path style=" stroke:none;fill-rule:nonzero;fill:rgb(100%,100%,100%);fill-opacity:1;" d="M 378.214844 254.230469 L 380.082031 254.230469 C 380.648438 254.230469 381.105469 254.691406 381.105469 255.257812 C 381.105469 255.824219 380.648438 256.285156 380.082031 256.285156 L 378.214844 256.285156 C 377.648438 256.285156 377.1875 255.824219 377.1875 255.257812 C 377.1875 254.691406 377.648438 254.230469 378.214844 254.230469 Z M 378.214844 254.230469 "/>
<path style=" stroke:none;fill-rule:nonzero;fill:rgb(100%,100%,100%);fill-opacity:1;" d="M 384.265625 254.230469 L 386.136719 254.230469 C 386.703125 254.230469 387.160156 254.691406 387.160156 255.257812 C 387.160156 255.824219 386.703125 256.285156 386.136719 256.285156 L 384.265625 256.285156 C 383.699219 256.285156 383.242188 255.824219 383.242188 255.257812 C 383.242188 254.691406 383.699219 254.230469 384.265625 254.230469 Z M 384.265625 254.230469 "/>
<path style=" stroke:none;fill-rule:nonzero;fill:rgb(100%,100%,100%);fill-opacity:1;" d="M 362.660156 254.402344 L 374.269531 254.402344 C 374.835938 254.402344 375.296875 254.863281 375.296875 255.429688 C 375.296875 255.996094 374.835938 256.457031 374.269531 256.457031 L 362.660156 256.457031 C 362.09375 256.457031 361.632812 255.996094 361.632812 255.429688 C 361.632812 254.863281 362.09375 254.402344 362.660156 254.402344 Z M 362.660156 254.402344 "/>
<path style=" stroke:none;fill-rule:nonzero;fill:rgb(100%,71.372549%,71.372549%);fill-opacity:1;" d="M 331.691406 322.414062 L 322.921875 308.542969 L 350.449219 286.585938 L 361.8125 273.992188 C 364.816406 270.660156 369.363281 269.179688 373.75 270.105469 C 378.136719 271.03125 381.699219 274.21875 383.109375 278.480469 C 385.234375 284.925781 381.875 291.902344 375.507812 294.25 L 357.539062 300.871094 Z M 331.691406 322.414062 "/>
<path style=" stroke:none;fill-rule:nonzero;fill:rgb(18.431373%,18.039216%,25.490196%);fill-opacity:1;" d="M 125.925781 221.839844 L 125.925781 289.257812 L 173.125 289.257812 L 173.125 221.839844 C 173.128906 220.84375 172.480469 219.964844 171.53125 219.671875 C 171.3125 219.597656 171.082031 219.5625 170.851562 219.566406 L 128.207031 219.566406 C 126.949219 219.5625 125.925781 220.582031 125.925781 221.839844 Z M 144.347656 245.003906 C 144.371094 242.238281 146.621094 240.011719 149.382812 240.011719 C 152.148438 240.011719 154.398438 242.238281 154.421875 245.003906 L 154.421875 252.828125 C 154.410156 255.601562 152.15625 257.84375 149.382812 257.84375 C 146.613281 257.84375 144.359375 255.601562 144.347656 252.828125 Z M 144.347656 245.003906 "/>
<path style=" stroke:none;fill-rule:nonzero;fill:rgb(24.705882%,23.921569%,33.72549%);fill-opacity:1;" d="M 125.78125 287.101562 L 125.78125 293.601562 C 125.785156 294.304688 126.347656 294.871094 127.050781 294.878906 L 172.003906 294.878906 C 172.703125 294.875 173.269531 294.304688 173.269531 293.601562 L 173.269531 287.101562 Z M 125.78125 287.101562 "/>
<path style=" stroke:none;fill-rule:nonzero;fill:rgb(24.705882%,23.921569%,33.72549%);fill-opacity:1;" d="M 51.671875 120.269531 L 51.671875 243.363281 C 51.675781 246.628906 54.320312 249.277344 57.585938 249.277344 L 239.882812 249.277344 C 243.148438 249.277344 245.792969 246.628906 245.796875 243.363281 L 245.796875 120.269531 C 245.789062 117.003906 243.144531 114.363281 239.882812 114.359375 L 57.585938 114.359375 C 54.324219 114.363281 51.679688 117.003906 51.671875 120.269531 Z M 51.671875 120.269531 "/>
<path style=" stroke:none;fill-rule:nonzero;fill:rgb(100%,100%,100%);fill-opacity:1;" d="M 55.949219 121.800781 L 55.949219 241.84375 C 55.953125 243.589844 57.367188 245.003906 59.109375 245.003906 L 238.363281 245.003906 C 240.109375 245.003906 241.523438 243.589844 241.523438 241.84375 L 241.523438 121.800781 C 241.523438 120.050781 240.113281 118.636719 238.363281 118.632812 L 59.109375 118.632812 C 57.363281 118.636719 55.949219 120.050781 55.949219 121.800781 Z M 55.949219 121.800781 "/>
<path style=" stroke:none;fill-rule:nonzero;fill:rgb(18.431373%,18.039216%,25.490196%);fill-opacity:1;" d="M 89.21875 294.4375 C 89.585938 294.902344 90.148438 295.171875 90.742188 295.167969 L 197.386719 295.167969 C 197.976562 295.167969 198.535156 294.898438 198.90625 294.441406 C 199.28125 293.980469 199.425781 293.378906 199.304688 292.800781 L 197.648438 284.933594 C 197.507812 284.28125 197.050781 283.742188 196.425781 283.503906 C 196.207031 283.417969 195.96875 283.375 195.730469 283.375 L 92.390625 283.375 C 92.152344 283.375 91.914062 283.417969 91.695312 283.503906 C 91.070312 283.742188 90.609375 284.28125 90.472656 284.933594 L 88.816406 292.800781 C 88.695312 293.378906 88.84375 293.980469 89.21875 294.4375 Z M 89.21875 294.4375 "/>
<path style=" stroke:none;fill-rule:nonzero;fill:rgb(24.705882%,23.921569%,33.72549%);fill-opacity:1;" d="M 232.546875 135.167969 L 64.820312 135.167969 C 64.457031 135.160156 64.167969 134.863281 64.167969 134.5 C 64.167969 134.136719 64.457031 133.839844 64.820312 133.832031 L 232.546875 133.832031 C 232.910156 133.839844 233.199219 134.136719 233.199219 134.5 C 233.199219 134.863281 232.910156 135.160156 232.546875 135.167969 Z M 232.546875 135.167969 "/>
<path style=" stroke:none;fill-rule:nonzero;fill:rgb(24.705882%,23.921569%,33.72549%);fill-opacity:1;" d="M 80.144531 126.425781 C 80.144531 124.21875 78.394531 122.429688 76.238281 122.429688 C 74.078125 122.429688 72.328125 124.21875 72.328125 126.425781 C 72.328125 128.636719 74.078125 130.425781 76.238281 130.425781 C 78.394531 130.425781 80.144531 128.636719 80.144531 126.425781 Z M 80.144531 126.425781 "/>
<path style=" stroke:none;fill-rule:nonzero;fill:rgb(24.705882%,23.921569%,33.72549%);fill-opacity:1;" d="M 93.648438 126.425781 C 93.648438 124.21875 91.898438 122.429688 89.742188 122.429688 C 87.582031 122.429688 85.832031 124.21875 85.832031 126.425781 C 85.832031 128.636719 87.582031 130.425781 89.742188 130.425781 C 91.898438 130.425781 93.648438 128.636719 93.648438 126.425781 Z M 93.648438 126.425781 "/>
<path style=" stroke:none;fill-rule:nonzero;fill:rgb(24.705882%,23.921569%,33.72549%);fill-opacity:1;" d="M 107.152344 126.425781 C 107.152344 124.21875 105.402344 122.429688 103.246094 122.429688 C 101.085938 122.429688 99.335938 124.21875 99.335938 126.425781 C 99.335938 128.636719 101.085938 130.425781 103.246094 130.425781 C 105.402344 130.425781 107.152344 128.636719 107.152344 126.425781 Z M 107.152344 126.425781 "/>
<path style=" stroke:none;fill-rule:nonzero;fill:rgb(24.705882%,23.921569%,33.72549%);fill-opacity:1;" d="M 224.417969 123.417969 L 214.824219 123.417969 C 214.429688 123.425781 214.117188 123.75 214.117188 124.144531 C 214.117188 124.539062 214.429688 124.859375 214.824219 124.871094 L 224.417969 124.871094 C 224.8125 124.863281 225.132812 124.539062 225.132812 124.144531 C 225.132812 123.746094 224.8125 123.421875 224.417969 123.417969 Z M 224.417969 123.417969 "/>
<path style=" stroke:none;fill-rule:nonzero;fill:rgb(24.705882%,23.921569%,33.72549%);fill-opacity:1;" d="M 224.417969 126.144531 L 214.824219 126.144531 C 214.429688 126.152344 214.113281 126.476562 214.113281 126.871094 C 214.113281 127.265625 214.429688 127.589844 214.824219 127.597656 L 224.417969 127.597656 C 224.8125 127.59375 225.132812 127.269531 225.132812 126.871094 C 225.132812 126.472656 224.8125 126.148438 224.417969 126.144531 Z M 224.417969 126.144531 "/>
<path style=" stroke:none;fill-rule:nonzero;fill:rgb(24.705882%,23.921569%,33.72549%);fill-opacity:1;" d="M 224.417969 128.871094 L 214.824219 128.871094 C 214.429688 128.882812 214.117188 129.203125 214.117188 129.597656 C 214.117188 129.992188 214.429688 130.316406 214.824219 130.324219 L 224.417969 130.324219 C 224.8125 130.320312 225.132812 129.996094 225.132812 129.597656 C 225.132812 129.203125 224.8125 128.878906 224.417969 128.871094 Z M 224.417969 128.871094 "/>
<path style=" stroke:none;fill-rule:nonzero;fill:rgb(18.431373%,18.039216%,25.490196%);fill-opacity:1;" d="M 455.640625 289.953125 C 456.234375 291.683594 457.875 292.835938 459.703125 292.800781 L 477.105469 292.351562 C 478.949219 292.316406 480.546875 291.070312 481.035156 289.292969 L 483.496094 262.941406 C 484.371094 263.335938 485.320312 263.53125 486.28125 263.511719 C 489.785156 263.425781 492.554688 260.511719 492.464844 257.003906 C 492.378906 253.5 489.464844 250.726562 485.960938 250.816406 C 485.578125 250.816406 485.195312 250.855469 484.820312 250.933594 C 483.996094 250.042969 482.835938 249.539062 481.621094 249.550781 L 454.851562 250.242188 C 454.628906 250.253906 454.40625 250.28125 454.191406 250.324219 C 453.003906 250.546875 451.96875 251.273438 451.355469 252.3125 C 450.742188 253.355469 450.605469 254.613281 450.988281 255.757812 Z M 484.003906 261.152344 L 485.753906 254.871094 C 485.953125 254.148438 485.957031 253.382812 485.769531 252.65625 C 485.851562 252.652344 485.929688 252.613281 486.011719 252.613281 C 488.515625 252.5625 490.585938 254.546875 490.644531 257.046875 C 490.703125 259.550781 488.726562 261.628906 486.226562 261.695312 C 485.449219 261.71875 484.679688 261.53125 484.003906 261.152344 Z M 484.003906 261.152344 "/>
<path style=" stroke:none;fill-rule:nonzero;fill:rgb(24.705882%,23.921569%,33.72549%);fill-opacity:1;" d="M 454.191406 250.324219 C 454.761719 253.589844 461.171875 255.882812 468.882812 255.484375 C 475.972656 255.15625 481.769531 252.667969 482.832031 249.714844 C 482.4375 249.597656 482.03125 249.542969 481.621094 249.550781 L 454.851562 250.242188 C 454.628906 250.253906 454.40625 250.28125 454.191406 250.324219 Z M 454.191406 250.324219 "/>
<path style=" stroke:none;fill-rule:nonzero;fill:rgb(20.392157%,19.607843%,26.27451%);fill-opacity:1;" d="M 470.296875 275.472656 C 470.332031 275.464844 470.363281 275.449219 470.394531 275.429688 L 474.175781 272.957031 C 474.265625 272.894531 474.324219 272.792969 474.324219 272.679688 C 474.324219 272.570312 474.265625 272.464844 474.175781 272.40625 L 470.246094 269.832031 C 470.148438 269.765625 470.023438 269.757812 469.917969 269.8125 C 469.8125 269.863281 469.742188 269.96875 469.738281 270.085938 C 469.730469 270.203125 469.789062 270.316406 469.886719 270.378906 L 473.394531 272.679688 L 470.035156 274.882812 C 469.902344 274.96875 469.847656 275.140625 469.914062 275.289062 C 469.980469 275.433594 470.140625 275.515625 470.296875 275.472656 Z M 470.296875 275.472656 "/>
<path style=" stroke:none;fill-rule:nonzero;fill:rgb(20.392157%,19.607843%,26.27451%);fill-opacity:1;" d="M 464.324219 275.75 C 464.457031 275.71875 464.554688 275.609375 464.570312 275.476562 C 464.589844 275.34375 464.523438 275.214844 464.410156 275.144531 L 460.925781 273.148438 L 464.292969 270.644531 C 464.4375 270.535156 464.46875 270.332031 464.359375 270.1875 C 464.253906 270.039062 464.046875 270.007812 463.902344 270.117188 L 460.132812 272.917969 C 460.042969 272.984375 459.992188 273.09375 460 273.203125 C 460.003906 273.3125 460.066406 273.414062 460.164062 273.46875 L 464.082031 275.714844 C 464.15625 275.757812 464.242188 275.769531 464.324219 275.75 Z M 464.324219 275.75 "/>
<path style=" stroke:none;fill-rule:nonzero;fill:rgb(20.392157%,19.607843%,26.27451%);fill-opacity:1;" d="M 469.917969 277.644531 C 469.953125 277.636719 469.980469 277.621094 470.007812 277.605469 C 470.085938 277.558594 470.136719 277.488281 470.15625 277.402344 C 470.179688 277.316406 470.164062 277.230469 470.121094 277.152344 L 464.761719 268.339844 C 464.667969 268.183594 464.464844 268.136719 464.3125 268.230469 C 464.15625 268.324219 464.105469 268.527344 464.199219 268.683594 L 469.558594 277.496094 C 469.632812 277.621094 469.78125 277.679688 469.917969 277.644531 Z M 469.917969 277.644531 "/>
<path style=" stroke:none;fill-rule:nonzero;fill:rgb(20.392157%,19.607843%,26.27451%);fill-opacity:1;" d="M 139.695312 171.453125 L 168.722656 171.453125 C 169.910156 171.453125 170.867188 172.414062 170.867188 173.597656 L 170.867188 176.4375 C 170.867188 177.621094 169.910156 178.582031 168.722656 178.582031 L 139.695312 178.582031 C 138.511719 178.582031 137.550781 177.621094 137.550781 176.4375 L 137.550781 173.597656 C 137.550781 172.414062 138.511719 171.453125 139.695312 171.453125 Z M 139.695312 171.453125 "/>
<path style=" stroke:none;fill-rule:nonzero;fill:rgb(90.196078%,90.196078%,90.196078%);fill-opacity:1;" d="M 122.773438 185.710938 L 185.644531 185.710938 C 186.828125 185.710938 187.789062 186.671875 187.789062 187.855469 L 187.789062 190.695312 C 187.789062 191.878906 186.828125 192.839844 185.644531 192.839844 L 122.773438 192.839844 C 121.589844 192.839844 120.628906 191.878906 120.628906 190.695312 L 120.628906 187.855469 C 120.628906 186.671875 121.589844 185.710938 122.773438 185.710938 Z M 122.773438 185.710938 "/>
<path style=" stroke:none;fill-rule:nonzero;fill:rgb(90.196078%,90.196078%,90.196078%);fill-opacity:1;" d="M 122.773438 199.96875 L 185.644531 199.96875 C 186.828125 199.96875 187.789062 200.929688 187.789062 202.117188 L 187.789062 204.953125 C 187.789062 206.140625 186.828125 207.097656 185.644531 207.097656 L 122.773438 207.097656 C 121.589844 207.097656 120.628906 206.140625 120.628906 204.953125 L 120.628906 202.117188 C 120.628906 200.929688 121.589844 199.96875 122.773438 199.96875 Z M 122.773438 199.96875 "/>
<path style=" stroke:none;fill-rule:nonzero;fill:rgb(24.705882%,23.921569%,33.72549%);fill-opacity:1;" d="M 190.976562 247.71875 L 191.117188 248.167969 L 191.125 248.183594 L 195.410156 261.222656 L 200.34375 276.25 L 209.621094 304.488281 L 209.710938 308.875 L 209.710938 308.890625 L 210.398438 344.179688 L 208.488281 348.964844 L 210.640625 356.808594 C 210.640625 356.808594 209.652344 344.953125 204.34375 351.761719 C 201.339844 355.628906 197.824219 359.589844 194.941406 363.300781 C 199.144531 365.003906 203.414062 366.542969 207.753906 367.921875 C 208.691406 368.222656 209.636719 368.503906 210.578125 368.789062 C 210.78125 368.851562 210.984375 368.910156 211.1875 368.96875 C 225.570312 373.226562 240.441406 375.617188 255.429688 376.085938 C 256.210938 376.109375 256.976562 376.125 257.71875 376.140625 C 257.980469 376.148438 258.234375 376.15625 258.488281 376.15625 C 259.328125 376.160156 260.160156 376.167969 261 376.167969 C 262.691406 376.167969 264.378906 376.144531 266.058594 376.09375 C 278.480469 375.742188 290.835938 374.074219 302.90625 371.109375 C 302.824219 366.121094 302.597656 360.292969 302.277344 354.070312 C 302.125 351.019531 298.761719 347.710938 298.558594 344.515625 C 298.417969 342.117188 301.4375 339.859375 301.28125 337.421875 C 300.261719 322.417969 298.984375 328.179688 298.042969 317.554688 C 297.945312 316.511719 297.855469 315.511719 297.773438 314.5625 C 297.164062 307.738281 296.746094 303.46875 296.746094 303.46875 L 300.777344 278.042969 L 307.109375 238.117188 L 306.621094 237.316406 L 306.074219 237.046875 L 272.675781 220.503906 L 270.863281 215.855469 C 269.78125 213.113281 267.144531 211.308594 264.199219 211.289062 L 242.195312 211.199219 C 239.878906 211.1875 237.699219 212.296875 236.34375 214.175781 L 230.386719 222.429688 Z M 190.976562 247.71875 "/>
<path style=" stroke:none;fill-rule:nonzero;fill:rgb(24.705882%,23.921569%,33.72549%);fill-opacity:1;" d="M 214.695312 298.207031 L 209.710938 308.875 L 206.308594 316.164062 L 200.457031 346.828125 L 197.523438 349.941406 L 195.015625 338.921875 L 168.738281 344.761719 C 167.878906 339.96875 168.507812 344.921875 167.976562 339.667969 C 168.125 339.515625 168.285156 339.367188 168.441406 339.214844 C 168.859375 338.828125 169.214844 338.460938 169.207031 338.105469 C 168.90625 319.976562 169.804688 289.117188 177.3125 270.421875 C 178.488281 267.371094 180.039062 264.476562 181.929688 261.808594 C 182.082031 261.605469 182.222656 261.402344 182.363281 261.199219 C 185.828125 256.347656 188.015625 251.570312 191.117188 248.175781 L 191.117188 248.167969 C 191.136719 248.152344 191.15625 248.132812 191.171875 248.113281 C 191.179688 248.109375 191.191406 248.101562 191.199219 248.089844 L 212.511719 236.785156 L 213.425781 262.488281 L 214.078125 280.964844 Z M 214.695312 298.207031 "/>
<path style=" stroke:none;fill-rule:nonzero;fill:rgb(24.705882%,23.921569%,33.72549%);fill-opacity:1;" d="M 291.542969 301.238281 L 297.769531 314.5625 L 299.941406 319.207031 L 305.792969 349.867188 L 308.714844 352.96875 L 311.230469 341.957031 L 312.414062 341.714844 L 333.734375 337.292969 L 339.949219 357.042969 C 342.835938 352.230469 341.941406 346.046875 337.808594 342.25 C 337.382812 341.867188 337.03125 341.492188 337.039062 341.140625 C 337.394531 319.8125 336.089844 280.871094 324.316406 264.84375 C 320.578125 259.757812 318.335938 254.691406 315.070312 251.152344 C 315.058594 251.140625 315.058594 251.132812 315.050781 251.132812 L 307.105469 238.117188 L 306.621094 237.320312 L 306.074219 237.046875 Z M 291.542969 301.238281 "/>
<path style=" stroke:none;fill-rule:nonzero;fill:rgb(100%,71.372549%,71.372549%);fill-opacity:1;" d="M 283.105469 175.640625 C 283.105469 191.820312 270 204.933594 253.832031 204.933594 C 237.667969 204.933594 224.5625 191.820312 224.5625 175.640625 C 224.5625 159.464844 237.667969 146.351562 253.832031 146.351562 C 270 146.351562 283.105469 159.464844 283.105469 175.640625 Z M 283.105469 175.640625 "/>
<path style=" stroke:none;fill-rule:nonzero;fill:rgb(18.431373%,18.039216%,25.490196%);fill-opacity:1;" d="M 293.398438 155.183594 C 292.9375 154.691406 292.300781 154.410156 291.628906 154.402344 L 292.070312 153.179688 C 292.363281 152.394531 292.210938 151.511719 291.671875 150.875 C 291.132812 150.234375 290.289062 149.933594 289.46875 150.089844 L 287.867188 150.398438 L 288.015625 149.328125 C 288.136719 148.515625 287.816406 147.699219 287.179688 147.183594 C 286.539062 146.667969 285.679688 146.527344 284.910156 146.816406 C 284.214844 147.089844 283.429688 147.035156 282.78125 146.664062 C 282.128906 146.304688 281.667969 145.679688 281.519531 144.949219 L 280.960938 142.253906 L 280.902344 142.109375 C 278.183594 137.574219 272.953125 134.273438 266.554688 133.0625 C 260.859375 131.980469 255.019531 132.53125 249.390625 133.050781 C 247.15625 133.261719 244.632812 133.496094 242.53125 134.785156 C 240.746094 135.890625 239.234375 138.097656 239.542969 140.328125 C 233.992188 138.625 228.039062 142.023438 225.089844 146.308594 C 221.59375 151.410156 221.023438 157.800781 220.933594 162.796875 C 220.683594 174.613281 223.121094 184.285156 228.15625 191.539062 C 228.527344 192.066406 228.617188 193.164062 229.347656 193.53125 L 229.195312 193.289062 C 230.011719 193.695312 230.839844 194.355469 230.53125 195.058594 C 229.644531 197.082031 235.535156 201.558594 239.6875 203.039062 C 247.261719 205.738281 257.332031 205.507812 264.414062 204.535156 L 264.664062 202.859375 C 267.21875 202.511719 269.019531 201.847656 269.523438 200.808594 C 270.417969 200.046875 271.179688 199.363281 271.84375 198.730469 L 271.851562 198.726562 C 271.863281 198.710938 271.890625 198.691406 271.902344 198.679688 C 275.101562 195.609375 275.84375 193.863281 276.179688 191.199219 C 276.5 188.589844 275.929688 185.941406 275.34375 183.554688 C 287.65625 185.460938 270.496094 170.433594 281.96875 167.527344 C 282.097656 167.488281 282.230469 167.453125 282.367188 167.429688 C 282.703125 167.351562 283.039062 167.273438 283.359375 167.179688 C 284.910156 166.757812 286.398438 166.125 287.773438 165.292969 C 290.980469 163.339844 292.039062 160.75 293.691406 157.832031 C 294.183594 156.980469 294.0625 155.90625 293.398438 155.183594 Z M 293.398438 155.183594 "/>
<path style=" stroke:none;fill-rule:nonzero;fill:rgb(18.431373%,18.039216%,25.490196%);fill-opacity:1;" d="M 357.363281 303.320312 C 357.355469 304.472656 357.34375 306.082031 357.289062 308.074219 C 357.285156 308.351562 357.277344 308.632812 357.269531 308.921875 C 357.183594 312.585938 357.097656 315.652344 356.960938 319.066406 C 356.953125 319.300781 356.949219 319.53125 356.933594 319.769531 C 356.75 324.527344 356.460938 330.070312 355.960938 338.84375 C 355.035156 355.054688 353.421875 341.074219 351.796875 346.757812 C 351.71875 347.042969 351.632812 347.378906 351.554688 347.773438 C 351.308594 349.203125 350.894531 350.597656 350.320312 351.933594 C 349.460938 352.445312 348.574219 352.9375 347.699219 353.429688 C 345.210938 354.816406 342.679688 356.152344 340.132812 357.421875 C 338.699219 358.132812 337.261719 358.828125 335.816406 359.5 C 335.585938 359.605469 335.363281 359.707031 335.136719 359.808594 C 327.738281 363.234375 320.109375 366.144531 312.308594 368.523438 C 310.785156 368.984375 309.269531 369.429688 307.730469 369.84375 C 306.128906 370.292969 304.527344 370.710938 302.902344 371.105469 C 290.832031 374.074219 278.480469 375.746094 266.054688 376.097656 C 264.382812 376.148438 262.691406 376.167969 260.996094 376.167969 C 260.15625 376.167969 259.328125 376.164062 258.488281 376.15625 C 258.230469 376.15625 257.976562 376.148438 257.71875 376.140625 C 256.976562 376.121094 256.207031 376.109375 255.433594 376.089844 C 240.441406 375.621094 225.574219 373.230469 211.191406 368.972656 L 210.578125 368.792969 C 209.632812 368.503906 208.695312 368.222656 207.753906 367.917969 C 203.417969 366.546875 199.144531 365.007812 194.9375 363.304688 C 191.726562 362.007812 188.550781 360.621094 185.410156 359.136719 C 185.382812 359.128906 185.355469 359.117188 185.332031 359.097656 C 184.675781 358.796875 184.011719 358.480469 183.355469 358.15625 C 183.269531 358.113281 183.179688 358.066406 183.085938 358.019531 C 180.636719 356.824219 178.210938 355.570312 175.8125 354.257812 C 173.796875 349.625 170.960938 348.738281 169.199219 344.664062 C 168.6875 343.453125 168.316406 342.183594 168.09375 340.890625 C 168.09375 340.875 168.089844 340.863281 168.089844 340.84375 C 168.273438 343.289062 167.308594 336.503906 168.082031 340.816406 C 168.074219 340.738281 168.070312 340.652344 168.0625 340.554688 C 168.042969 340.316406 168.015625 340.027344 167.976562 339.667969 C 165.722656 317.652344 165.867188 292.476562 164.890625 271.730469 C 164.824219 270.390625 164.757812 269.105469 164.6875 267.878906 C 164.667969 267.46875 164.640625 267.070312 164.613281 266.675781 C 164.660156 266.558594 164.710938 266.433594 164.769531 266.3125 C 164.785156 266.28125 164.800781 266.246094 164.816406 266.214844 C 164.835938 266.175781 164.859375 266.136719 164.882812 266.097656 C 164.894531 266.078125 164.914062 266.050781 164.929688 266.03125 C 164.9375 266.007812 164.949219 265.988281 164.960938 265.964844 C 165.019531 265.875 165.085938 265.773438 165.160156 265.683594 C 165.191406 265.644531 165.21875 265.609375 165.25 265.578125 C 165.273438 265.542969 165.300781 265.511719 165.328125 265.484375 C 165.351562 265.453125 165.375 265.425781 165.402344 265.398438 C 165.429688 265.375 165.453125 265.339844 165.488281 265.308594 C 165.5 265.289062 165.519531 265.269531 165.539062 265.253906 C 165.59375 265.195312 165.648438 265.140625 165.710938 265.089844 C 165.945312 264.875 166.195312 264.675781 166.460938 264.5 C 166.550781 264.441406 166.648438 264.382812 166.742188 264.316406 C 167.402344 263.917969 168.101562 263.585938 168.824219 263.316406 C 169.074219 263.222656 169.324219 263.140625 169.59375 263.046875 C 169.691406 263.019531 169.785156 262.988281 169.882812 262.953125 C 170.027344 262.910156 170.171875 262.863281 170.324219 262.828125 C 171.070312 262.605469 171.878906 262.414062 172.753906 262.238281 C 172.859375 262.21875 172.96875 262.199219 173.082031 262.171875 C 173.238281 262.140625 173.402344 262.113281 173.566406 262.085938 C 173.792969 262.046875 174.019531 262.007812 174.25 261.96875 C 176.203125 261.660156 178.414062 261.429688 180.859375 261.277344 C 181.089844 261.265625 181.320312 261.253906 181.550781 261.238281 C 181.820312 261.226562 182.089844 261.210938 182.363281 261.199219 C 182.59375 261.1875 182.832031 261.179688 183.066406 261.171875 C 183.296875 261.160156 183.535156 261.152344 183.777344 261.148438 C 184.441406 261.128906 185.121094 261.109375 185.820312 261.09375 C 187.804688 261.054688 189.890625 261.066406 192.085938 261.113281 C 193.105469 261.140625 194.140625 261.167969 195.207031 261.210938 C 195.277344 261.210938 195.34375 261.21875 195.410156 261.21875 C 196.335938 261.253906 197.269531 261.292969 198.230469 261.34375 C 198.898438 261.378906 199.574219 261.410156 200.25 261.449219 C 200.890625 261.488281 201.53125 261.527344 202.183594 261.574219 C 202.6875 261.601562 203.195312 261.640625 203.707031 261.671875 C 204.140625 261.707031 204.574219 261.738281 205.007812 261.765625 L 205.597656 261.804688 C 205.921875 261.832031 206.242188 261.851562 206.570312 261.882812 C 207.292969 261.941406 208.015625 262 208.753906 262.0625 C 209.480469 262.125 210.222656 262.191406 210.964844 262.257812 C 211.707031 262.324219 212.457031 262.394531 213.207031 262.46875 C 213.285156 262.476562 213.359375 262.480469 213.429688 262.488281 C 214.113281 262.558594 214.796875 262.625 215.484375 262.699219 C 215.644531 262.710938 215.808594 262.726562 215.964844 262.746094 C 216.625 262.808594 217.292969 262.886719 217.957031 262.957031 C 218.160156 262.980469 218.363281 263 218.566406 263.023438 C 219.085938 263.082031 219.601562 263.128906 220.125 263.191406 C 220.8125 263.269531 221.515625 263.34375 222.199219 263.433594 C 222.730469 263.492188 223.265625 263.554688 223.796875 263.617188 C 224.628906 263.71875 225.476562 263.824219 226.324219 263.933594 C 226.648438 263.972656 226.96875 264.011719 227.289062 264.058594 C 229.707031 264.363281 232.152344 264.695312 234.636719 265.046875 C 238.398438 265.578125 242.222656 266.15625 246.074219 266.78125 C 249.929688 267.40625 253.804688 268.0625 257.707031 268.757812 C 258.691406 268.9375 259.675781 269.113281 260.667969 269.296875 C 261.117188 269.382812 261.5625 269.46875 262.007812 269.554688 C 262.769531 269.691406 263.535156 269.835938 264.296875 269.980469 C 265.058594 270.125 265.820312 270.269531 266.582031 270.421875 C 267.488281 270.597656 268.402344 270.777344 269.308594 270.953125 C 275.277344 272.136719 281.21875 273.398438 287.011719 274.722656 C 287.964844 274.9375 288.917969 275.160156 289.863281 275.378906 C 291.753906 275.820312 293.628906 276.265625 295.484375 276.71875 C 296 276.835938 296.503906 276.960938 297.011719 277.085938 C 298.273438 277.402344 299.53125 277.71875 300.773438 278.039062 L 300.992188 278.101562 C 301.90625 278.324219 302.796875 278.554688 303.691406 278.789062 C 305.800781 279.34375 307.875 279.902344 309.914062 280.464844 C 311.265625 280.839844 312.605469 281.21875 313.925781 281.601562 C 315.902344 282.175781 317.839844 282.753906 319.726562 283.339844 C 320.191406 283.484375 320.660156 283.628906 321.121094 283.765625 C 322.5 284.195312 323.859375 284.628906 325.179688 285.0625 C 326.230469 285.402344 327.253906 285.75 328.265625 286.101562 C 329.277344 286.449219 330.269531 286.796875 331.242188 287.144531 C 331.867188 287.367188 332.484375 287.605469 333.101562 287.828125 C 333.988281 288.15625 334.863281 288.484375 335.714844 288.816406 C 335.980469 288.914062 336.234375 289.019531 336.492188 289.117188 C 336.65625 289.1875 336.8125 289.25 336.972656 289.3125 C 337.28125 289.4375 337.59375 289.558594 337.898438 289.683594 C 338.207031 289.800781 338.507812 289.925781 338.808594 290.058594 C 339.105469 290.175781 339.410156 290.300781 339.699219 290.425781 C 339.992188 290.542969 340.28125 290.667969 340.570312 290.800781 C 340.8125 290.898438 341.050781 291.003906 341.28125 291.109375 C 341.746094 291.3125 342.214844 291.515625 342.667969 291.726562 C 342.890625 291.832031 343.113281 291.929688 343.335938 292.035156 L 343.847656 292.273438 C 343.921875 292.3125 343.992188 292.34375 344.066406 292.378906 C 344.230469 292.457031 344.402344 292.542969 344.566406 292.621094 C 344.945312 292.796875 345.320312 292.988281 345.6875 293.167969 C 346.179688 293.414062 346.660156 293.664062 347.121094 293.910156 C 347.585938 294.160156 348.039062 294.410156 348.472656 294.652344 C 348.546875 294.691406 348.613281 294.730469 348.683594 294.769531 C 348.78125 294.824219 348.882812 294.882812 348.980469 294.933594 C 349.316406 295.125 349.636719 295.320312 349.957031 295.511719 C 350.589844 295.902344 351.1875 296.28125 351.746094 296.664062 C 351.871094 296.75 351.988281 296.835938 352.113281 296.914062 C 352.527344 297.207031 352.921875 297.496094 353.289062 297.792969 C 353.289062 297.800781 353.289062 297.800781 353.296875 297.800781 C 353.421875 297.890625 353.539062 297.992188 353.65625 298.082031 C 353.753906 298.175781 353.859375 298.253906 353.960938 298.347656 C 354.300781 298.640625 354.617188 298.925781 354.90625 299.214844 C 355.003906 299.304688 355.09375 299.398438 355.179688 299.496094 C 355.21875 299.527344 355.253906 299.5625 355.285156 299.601562 C 355.417969 299.734375 355.535156 299.863281 355.648438 299.996094 C 355.664062 300.015625 355.679688 300.035156 355.695312 300.054688 C 355.851562 300.238281 355.996094 300.421875 356.132812 300.605469 C 356.199219 300.699219 356.273438 300.792969 356.332031 300.882812 C 356.410156 300.996094 356.488281 301.113281 356.554688 301.226562 C 356.613281 301.316406 356.664062 301.414062 356.71875 301.507812 C 356.859375 301.746094 356.976562 301.992188 357.074219 302.25 C 357.148438 302.425781 357.207031 302.605469 357.25 302.789062 C 357.300781 302.964844 357.335938 303.140625 357.363281 303.320312 Z M 357.363281 303.320312 "/>
<use xlink:href="#surface5" mask="url(#mask0)"/>
</g>
</svg>
